<svg xmlns="http://www.w3.org/2000/svg" xmlns:xlink="http://www.w3.org/1999/xlink">
  <symbol id="arrow-down" viewBox="0 0 18 11" fill="none">
    <path d="M1 1L9 9L17 1" stroke="#1F1E25" strokeWidth="2"/>
  </symbol>

  <symbol id="arrow-left" viewBox="0 0 53 18" fill="none">
    <path d="M19 1L3 9L19 17" stroke="#1F1E25" strokeWidth="2"/>
    <path d="M3 9C9.66667 9 33.3241 9 44.6667 9L53 9" stroke="#1F1E25" strokeWidth="2"/>
  </symbol>

  <symbol id="arrow-right" viewBox="0 0 53 18" fill="none">
    <path d="M34 17L50 9L34 1" stroke="#1F1E25" strokeWidth="2"/>
    <path d="M50 9C43.3333 9 19.6759 9 8.33333 9H0" stroke="#1F1E25" strokeWidth="2"/>
  </symbol>

  <symbol id="calendar" viewBox="0 0 41 44" fill="none">
    <path d="M1 14.1828H40" stroke="black"/>
    <path d="M8 1L8.09082 10.7419" stroke="black"/>
    <path d="M33 1V11" stroke="black"/>
    <path d="M40 40V9C40 7.34315 38.6569 6 37 6H4C2.34315 6 1 7.34315 1 9V40C1 41.6569 2.34315 43 4 43H37C38.6569 43 40 41.6569 40 40Z" stroke="black"/>
    <path d="M5 19H8" stroke="#2C36F2" strokeWidth="3"/>
    <path d="M12.0908 19H15.0908" stroke="#2C36F2" strokeWidth="3"/>
    <path d="M19.1816 19H22.1816" stroke="#2C36F2" strokeWidth="3"/>
    <path d="M26.2725 19H29.2725" stroke="#2C36F2" strokeWidth="3"/>
    <path d="M33.3633 19H36.3633" stroke="#2C36F2" strokeWidth="3"/>
    <path d="M5 25H8" stroke="#2C36F2" strokeWidth="3"/>
    <path d="M12.0908 25H15.0908" stroke="#2C36F2" strokeWidth="3"/>
    <path d="M19.1816 25H22.1816" stroke="#2C36F2" strokeWidth="3"/>
    <path d="M26.2725 25H29.2725" stroke="#2C36F2" strokeWidth="3"/>
    <path d="M33.3633 25H36.3633" stroke="#2C36F2" strokeWidth="3"/>
    <path d="M5 31H8" stroke="#2C36F2" strokeWidth="3"/>
    <path d="M12.0908 31H15.0908" stroke="#2C36F2" strokeWidth="3"/>
    <path d="M19.1816 31H22.1816" stroke="#2C36F2" strokeWidth="3"/>
    <path d="M26.2725 31H29.2725" stroke="#2C36F2" strokeWidth="3"/>
    <path d="M33.3633 31H36.3633" stroke="#2C36F2" strokeWidth="3"/>
    <path d="M5 37H8" stroke="#2C36F2" strokeWidth="3"/>
    <path d="M12.0908 37H15.0908" stroke="#2C36F2" strokeWidth="3"/>
    <path d="M19.1816 37H22.1816" stroke="#2C36F2" strokeWidth="3"/>
    <path d="M26.2725 37H29.2725" stroke="#2C36F2" strokeWidth="3"/>
    <path d="M33.3633 37H36.3633" stroke="#2C36F2" strokeWidth="3"/>
  </symbol>
</svg>